<svg xmlns="http://www.w3.org/2000/svg" viewBox="0 0 32 32" role="img" aria-label="abacadaba">
  <style>
    .tile { fill: #0C2233 }
    .letter { fill: #a78bfa }
    @media (prefers-color-scheme: dark) {
      .tile { fill: #F2F5F7 }
      .letter { fill: #6d28d9 }
    }
  </style>
  <rect class="tile" width="32" height="32" rx="7.5"/>
  <path class="letter" d="M11.23 19.67Q11.23 18.62 11.73 17.87Q12.23 17.12 13.25 16.71Q14.27 16.29 15.9 16.29Q17.65 16.29 19.19 16.73Q20.73 17.17 22.19 18.17V16.21Q21.9 15.83 21.06 15.23Q20.23 14.62 18.83 14.15Q17.44 13.67 15.35 13.67Q11.81 13.67 9.83 15.35Q7.85 17.04 7.85 19.83Q7.85 21.79 8.77 23.17Q9.69 24.54 11.21 25.27Q12.73 26 14.48 26Q16.06 26 17.67 25.42Q19.27 24.83 20.37 23.62Q21.48 22.42 21.48 20.58L20.81 18.08Q20.81 19.58 20.08 20.73Q19.35 21.87 18.12 22.5Q16.9 23.12 15.35 23.12Q14.15 23.12 13.21 22.73Q12.27 22.33 11.75 21.54Q11.23 20.75 11.23 19.67ZM10.73 10.83Q11.19 10.5 11.98 10.04Q12.77 9.58 13.92 9.25Q15.06 8.92 16.48 8.92Q17.35 8.92 18.15 9.08Q18.94 9.25 19.54 9.62Q20.15 10 20.48 10.65Q20.81 11.29 20.81 12.29V25.58H24.15V11.83Q24.15 9.96 23.21 8.67Q22.27 7.37 20.58 6.69Q18.9 6 16.65 6Q13.98 6 12.08 6.79Q10.19 7.58 9.1 8.37Z"/>
</svg>
